<svg width="24" height="24" viewBox="0 0 24 24" fill="none" xmlns="http://www.w3.org/2000/svg">
<path d="M17.0156 12.9844V11.0156H12.9844V6.98438H11.0156V11.0156H6.98438V12.9844H11.0156V17.0156H12.9844V12.9844H17.0156ZM4.92188 4.96875C6.89062 3 9.25 2.01562 12 2.01562C14.75 2.01562 17.0938 3 19.0312 4.96875C21 6.90625 21.9844 9.25 21.9844 12C21.9844 14.75 21 17.1094 19.0312 19.0781C17.0938 21.0156 14.75 21.9844 12 21.9844C9.25 21.9844 6.89062 21.0156 4.92188 19.0781C2.98438 17.1094 2.01562 14.75 2.01562 12C2.01562 9.25 2.98438 6.90625 4.92188 4.96875Z" fill="#B872FF"/>
</svg>
